{"glyphs":{":":{"x_min":0,"x_max":171,"ha":171,"o":"m 75 98 l 148 98 l 122 0 l 49 0 z m 153 391 l 227 391 l 201 293 l 127 293 z"},"$":{"x_min":0,"x_max":574,"ha":574,"o":"m 402 293 l 363 146 l 436 146 q 458 146 480 168 q 502 189 511 220 q 514 233 514 244 q 514 259 508 271 q 498 293 476 293 z m 395 537 l 321 537 q 298 537 276 516 q 254 494 247 464 q 243 450 243 438 q 243 424 249 412 q 259 391 282 391 l 355 391 z m 329 293 l 256 293 q 203 293 179 343 q 165 371 165 406 q 165 433 173 464 q 192 535 243 585 q 294 635 347 635 l 420 635 l 434 684 l 507 684 l 494 635 l 695 635 l 669 537 l 468 537 l 428 391 l 501 391 q 554 391 579 341 q 592 312 592 277 q 592 250 584 220 q 565 149 514 99 q 463 49 410 49 l 337 49 l 324 0 l 250 0 l 264 49 l 62 49 l 88 146 l 290 146 z"},"?":{"x_min":0,"x_max":574,"ha":574,"o":"m 366 293 q 343 293 321 271 q 299 250 291 220 l 271 146 l 198 146 l 218 220 q 236 291 287 341 q 338 391 392 391 l 501 391 q 524 391 546 412 q 568 434 576 464 l 589 513 q 593 526 593 538 q 593 553 587 564 q 577 586 554 586 l 206 586 l 232 684 l 580 684 q 633 684 657 634 q 670 605 670 571 q 670 544 662 513 l 649 464 q 630 393 579 343 q 528 293 476 293 z m 185 98 l 258 98 l 232 0 l 159 0 z"},"<":{"x_min":0,"x_max":500,"ha":500,"o":"m 121 269 l 160 415 l 609 586 l 583 488 l 215 349 l 212 335 l 504 195 l 478 98 z"},"'":{"x_min":0,"x_max":171,"ha":171,"o":"m 243 586 l 206 586 l 232 684 l 305 684 l 272 562 q 267 542 252 527 q 238 513 223 513 l 208 513 l 199 562 l 218 562 q 236 562 243 586 z"},"=":{"x_min":0,"x_max":500,"ha":500,"o":"m 180 488 l 583 488 l 556 391 l 153 391 z m 127 293 l 530 293 l 504 195 l 101 195 z"},"a":{"x_min":0,"x_max":500,"ha":500,"o":"m 168 171 q 164 158 164 146 q 164 131 170 119 q 181 98 204 98 l 405 98 l 490 415 l 289 415 q 266 415 244 394 q 222 372 214 342 z m 452 0 l 177 0 q 124 0 100 50 q 86 78 86 113 q 86 140 95 171 l 141 342 q 159 413 210 463 q 261 513 314 513 l 589 513 z"},"L":{"x_min":0,"x_max":537,"ha":537,"o":"m 515 98 l 488 0 l 177 0 q 124 0 100 50 q 86 78 86 113 q 86 140 95 171 l 232 684 l 305 684 l 168 171 q 164 158 164 146 q 164 131 170 119 q 181 98 204 98 z"},"3":{"x_min":0,"x_max":574,"ha":574,"o":"m 237 293 l 263 391 l 501 391 q 524 391 546 412 q 568 434 576 464 l 589 513 q 593 526 593 538 q 593 553 587 564 q 577 586 554 586 l 206 586 l 232 684 l 580 684 q 633 684 657 634 q 670 605 670 571 q 670 544 662 513 l 649 464 q 630 393 579 341 q 592 313 592 278 q 592 251 584 220 l 571 171 q 552 100 501 50 q 450 0 397 0 l 49 0 l 75 98 l 423 98 q 446 98 468 119 q 489 141 498 171 l 511 220 q 514 233 514 244 q 514 259 508 271 q 498 293 476 293 z"},";":{"x_min":0,"x_max":171,"ha":171,"o":"m 153 391 l 227 391 l 201 293 l 127 293 z m 85 0 l 49 0 l 75 98 l 148 98 l 116 -24 q 110 -44 96 -59 q 81 -73 66 -73 l 51 -73 l 42 -24 l 61 -24 q 79 -24 85 0 z"},"J":{"x_min":0,"x_max":537,"ha":537,"o":"m 387 98 q 409 98 431 119 q 453 141 461 171 l 598 684 l 671 684 l 534 171 q 515 100 464 50 q 413 0 360 0 l 49 0 l 75 98 z"},"V":{"x_min":0,"x_max":562,"ha":562,"o":"m 226 0 l 208 684 l 281 684 l 297 98 l 318 98 l 647 684 l 721 684 l 336 0 z"},"\"":{"x_min":0,"x_max":281,"ha":281,"o":"m 243 586 l 206 586 l 232 684 l 305 684 l 272 562 q 267 542 252 527 q 238 513 223 513 l 208 513 l 199 562 l 218 562 q 236 562 243 586 z m 353 586 l 316 586 l 342 684 l 415 684 l 382 562 q 377 542 362 527 q 348 513 333 513 l 317 513 l 309 562 l 328 562 q 346 562 353 586 z"},"7":{"x_min":0,"x_max":586,"ha":586,"o":"m 671 684 l 269 0 l 186 0 l 532 586 l 206 586 l 232 684 z"},"S":{"x_min":0,"x_max":610,"ha":610,"o":"m 256 293 q 203 293 179 343 q 165 371 165 406 q 165 433 173 464 l 186 513 q 205 583 256 634 q 307 684 360 684 l 745 684 l 719 586 l 334 586 q 312 586 290 564 q 268 543 259 513 l 247 464 q 243 450 243 438 q 243 424 249 412 q 259 391 282 391 l 538 391 q 591 391 615 341 q 629 312 629 277 q 629 250 621 220 l 607 171 q 588 100 537 50 q 486 0 434 0 l 49 0 l 75 98 l 460 98 q 482 98 504 119 q 526 141 534 171 l 547 220 q 551 233 551 244 q 551 259 545 271 q 535 293 512 293 z"},"}":{"x_min":0,"x_max":427,"ha":427,"o":"m 324 341 q 312 370 312 404 q 312 432 320 464 l 346 562 q 350 575 350 586 q 350 601 344 613 q 333 635 311 635 l 219 635 l 245 732 l 337 732 q 390 732 414 683 q 427 654 427 620 q 427 593 419 562 l 393 464 q 389 450 389 438 q 389 424 395 412 q 405 391 428 391 l 483 391 l 457 293 l 402 293 q 379 293 357 271 q 335 250 328 220 l 301 122 q 282 51 231 1 q 180 -49 127 -49 l 36 -49 l 62 49 l 154 49 q 176 49 198 70 q 220 92 228 122 l 254 220 q 273 291 324 341 z"},"Z":{"x_min":0,"x_max":610,"ha":610,"o":"m 575 586 l 206 586 l 232 684 l 745 684 l 219 98 l 588 98 l 562 0 l 49 0 z"},"x":{"x_min":0,"x_max":452,"ha":452,"o":"m 249 256 l 162 513 l 253 513 l 314 332 l 473 513 l 564 513 l 340 256 l 427 0 l 335 0 l 274 181 l 116 0 l 24 0 z"},")":{"x_min":0,"x_max":391,"ha":391,"o":"m 227 49 q 250 49 271 70 q 293 92 301 122 l 419 562 q 423 575 423 586 q 423 601 417 613 q 406 635 384 635 l 219 635 l 245 732 l 410 732 q 463 732 487 683 q 500 654 500 620 q 500 593 492 562 l 375 122 q 355 51 304 1 q 253 -49 201 -49 l 36 -49 l 62 49 z"},"&":{"x_min":0,"x_max":573,"ha":573,"o":"m 313 98 q 336 98 358 119 q 379 141 388 171 l 414 269 q 417 282 417 294 q 417 309 412 320 q 401 342 379 342 l 269 342 q 246 342 224 320 q 202 299 194 269 l 168 171 q 164 158 164 146 q 164 131 170 119 q 181 98 204 98 z m 405 439 q 427 439 449 461 q 471 482 479 513 q 483 526 483 538 q 483 553 477 564 q 467 586 444 586 l 334 586 q 312 586 290 564 q 268 543 259 513 q 256 500 256 488 q 256 473 262 461 q 272 439 295 439 z m 392 51 q 392 51 392 50 q 340 0 287 0 l 177 0 q 124 0 100 50 q 86 78 86 113 q 86 140 95 171 l 121 269 q 140 339 191 390 q 191 390 192 391 q 192 391 191 392 q 178 420 178 455 q 178 481 186 513 q 205 583 256 634 q 307 684 360 684 l 470 684 q 523 684 547 634 q 561 605 561 571 q 561 544 552 513 q 533 442 484 390 q 535 439 588 439 l 644 439 l 617 342 l 562 342 q 539 342 517 320 q 495 299 487 269 l 461 171 q 457 158 457 146 q 457 131 463 119 q 474 98 497 98 l 552 98 l 525 0 l 470 0 q 417 0 393 50 q 393 51 392 51 z"},"_":{"x_min":0,"x_max":537,"ha":537,"o":"m 475 -49 l 449 -146 l 10 -146 l 36 -49 z"},"v":{"x_min":0,"x_max":452,"ha":452,"o":"m 262 98 l 492 513 l 565 513 l 281 0 l 171 0 l 162 513 l 235 513 l 243 98 z"},"O":{"x_min":0,"x_max":610,"ha":610,"o":"m 168 171 q 164 158 164 146 q 164 131 170 119 q 181 98 204 98 l 460 98 q 482 98 504 119 q 526 141 534 171 l 625 513 q 629 526 629 538 q 629 553 624 564 q 613 586 591 586 l 334 586 q 312 586 290 564 q 268 543 259 513 z m 607 171 q 588 100 537 50 q 486 0 434 0 l 177 0 q 124 0 100 50 q 86 78 86 113 q 86 140 95 171 l 186 513 q 205 583 256 634 q 307 684 360 684 l 617 684 q 669 684 694 634 q 707 605 707 571 q 707 544 699 513 z"},"(":{"x_min":0,"x_max":391,"ha":391,"o":"m 355 49 l 329 -49 l 164 -49 q 111 -49 87 1 q 73 29 73 64 q 73 91 82 122 l 199 562 q 218 632 269 682 q 320 732 374 732 l 538 732 l 512 635 l 347 635 q 324 635 302 613 q 281 592 272 562 l 155 122 q 151 109 151 97 q 151 83 157 70 q 167 49 190 49 z"},"C":{"x_min":0,"x_max":610,"ha":610,"o":"m 588 98 l 562 0 l 177 0 q 124 0 100 50 q 86 78 86 113 q 86 140 95 171 l 186 513 q 205 583 256 634 q 307 684 360 684 l 745 684 l 719 586 l 334 586 q 312 586 290 564 q 268 543 259 513 l 168 171 q 164 158 164 146 q 164 131 170 119 q 181 98 204 98 z"},"W":{"x_min":0,"x_max":763,"ha":763,"o":"m 152 0 l 208 684 l 281 684 l 233 91 l 519 684 l 610 684 l 562 91 l 848 684 l 921 684 l 592 0 l 482 0 l 526 547 l 262 0 z"},"A":{"x_min":0,"x_max":610,"ha":610,"o":"m 452 586 l 287 293 l 480 293 l 473 586 z m 543 684 l 562 0 l 488 0 l 483 195 l 232 195 l 122 0 l 49 0 l 434 684 z"},"f":{"x_min":0,"x_max":354,"ha":354,"o":"m 233 415 l 122 0 l 49 0 l 186 513 q 205 583 256 634 q 307 684 360 684 l 489 684 l 462 586 l 334 586 q 312 586 290 564 q 268 543 259 513 l 442 513 l 417 415 z"},"Q":{"x_min":0,"x_max":610,"ha":610,"o":"m 269 0 l 177 0 q 124 0 100 50 q 86 78 86 113 q 86 140 95 171 l 186 513 q 205 583 256 634 q 307 684 360 684 l 617 684 q 669 684 694 634 q 707 605 707 571 q 707 544 699 513 l 607 171 q 588 100 537 50 q 486 0 434 0 l 342 0 l 315 -98 l 242 -98 z m 295 98 l 321 195 l 394 195 l 368 98 l 460 98 q 482 98 504 119 q 526 141 534 171 l 625 513 q 629 526 629 538 q 629 553 624 564 q 613 586 591 586 l 334 586 q 312 586 290 564 q 268 543 259 513 l 168 171 q 164 158 164 146 q 164 131 170 119 q 181 98 204 98 z"},"w":{"x_min":0,"x_max":562,"ha":562,"o":"m 116 0 l 162 513 l 235 513 l 199 103 l 382 513 l 455 513 l 418 103 l 602 513 l 675 513 l 446 0 l 336 0 l 364 308 l 226 0 z"},"-":{"x_min":0,"x_max":500,"ha":500,"o":"m 153 391 l 556 391 l 530 293 l 127 293 z"},"E":{"x_min":0,"x_max":610,"ha":610,"o":"m 201 293 l 168 171 q 164 158 164 146 q 164 131 170 119 q 181 98 204 98 l 588 98 l 562 0 l 177 0 q 124 0 100 50 q 86 78 86 113 q 86 140 95 171 l 186 513 q 205 583 256 634 q 307 684 360 684 l 745 684 l 719 586 l 334 586 q 312 586 290 564 q 268 543 259 513 l 227 391 l 593 391 l 567 293 z"},"s":{"x_min":0,"x_max":500,"ha":500,"o":"m 278 513 l 552 513 l 526 415 l 252 415 q 244 415 237 408 q 229 401 227 391 l 210 330 q 209 325 209 321 q 209 316 211 312 q 214 305 222 305 l 442 305 q 480 305 497 270 q 506 250 506 225 q 506 206 500 183 l 484 123 q 471 71 435 36 q 398 0 360 0 l 49 0 l 75 98 l 387 98 q 394 98 401 105 q 408 112 411 122 l 427 183 q 429 188 429 192 q 429 197 427 201 q 423 208 416 208 l 196 208 q 158 208 141 243 q 131 263 131 288 q 131 308 137 330 l 153 391 q 167 441 203 477 q 240 513 278 513 z"},">":{"x_min":0,"x_max":500,"ha":500,"o":"m 75 98 l 101 195 l 468 335 l 472 349 l 180 488 l 206 586 l 563 415 l 523 269 z"},"l":{"x_min":0,"x_max":171,"ha":171,"o":"m 232 684 l 305 684 l 122 0 l 49 0 z"},"8":{"x_min":0,"x_max":574,"ha":574,"o":"m 423 98 q 446 98 468 119 q 489 141 498 171 l 511 220 q 514 233 514 244 q 514 259 508 271 q 498 293 476 293 l 256 293 q 233 293 211 271 q 189 250 181 220 l 168 171 q 164 158 164 146 q 164 131 170 119 q 181 98 204 98 z m 501 391 q 524 391 546 412 q 568 434 576 464 l 589 513 q 593 526 593 538 q 593 553 587 564 q 577 586 554 586 l 334 586 q 312 586 290 564 q 268 543 259 513 l 247 464 q 243 450 243 438 q 243 424 249 412 q 259 391 282 391 z m 580 684 q 633 684 657 634 q 670 605 670 571 q 670 544 662 513 l 649 464 q 630 393 580 343 q 579 342 578 342 q 578 341 579 341 q 592 313 592 278 q 592 251 584 220 l 571 171 q 552 100 501 50 q 450 0 397 0 l 177 0 q 124 0 100 50 q 86 78 86 113 q 86 140 95 171 l 108 220 q 126 291 178 341 q 178 341 179 342 q 179 342 178 343 q 165 371 165 405 q 165 433 173 464 l 186 513 q 205 583 256 634 q 307 684 360 684 z"},"\\":{"x_min":0,"x_max":372,"ha":372,"o":"m 305 684 l 324 0 l 250 0 l 232 684 z"},"e":{"x_min":0,"x_max":500,"ha":500,"o":"m 174 195 l 168 171 q 164 158 164 146 q 164 131 170 119 q 181 98 204 98 l 441 98 l 415 0 l 177 0 q 124 0 100 50 q 86 78 86 113 q 86 140 95 171 l 141 342 q 159 413 210 463 q 261 513 314 513 l 461 513 q 514 513 538 463 q 552 435 552 399 q 552 373 543 342 l 504 195 z m 457 293 l 470 342 q 474 355 474 366 q 474 381 468 394 q 458 415 435 415 l 289 415 q 266 415 244 394 q 222 372 214 342 l 201 293 z"},"b":{"x_min":0,"x_max":500,"ha":500,"o":"m 470 342 q 474 355 474 366 q 474 381 468 394 q 458 415 435 415 l 233 415 l 148 98 l 350 98 q 373 98 394 119 q 416 141 424 171 z m 232 684 l 305 684 l 259 513 l 461 513 q 514 513 538 463 q 552 435 552 399 q 552 373 543 342 l 498 171 q 479 100 427 50 q 376 0 324 0 l 49 0 z"},"%":{"x_min":0,"x_max":610,"ha":610,"o":"m 253 488 q 249 475 249 463 q 249 449 255 437 q 266 415 289 415 l 325 415 q 348 415 369 437 q 391 458 399 488 l 406 513 q 410 526 410 538 q 410 553 404 564 q 394 586 371 586 l 334 586 q 312 586 290 564 q 268 543 259 513 z m 388 171 q 384 158 384 146 q 384 131 390 119 q 400 98 423 98 l 460 98 q 482 98 504 119 q 526 141 534 171 l 541 195 q 544 208 544 220 q 544 235 539 247 q 528 269 505 269 l 469 269 q 446 269 424 247 q 402 226 394 195 z m 354 332 q 327 317 299 317 l 262 317 q 209 317 185 368 q 171 396 171 430 q 171 457 180 488 l 186 513 q 205 583 256 634 q 307 684 360 684 l 397 684 q 450 684 475 634 q 488 605 488 571 l 488 568 l 552 684 l 625 684 l 439 352 q 467 366 495 366 l 532 366 q 584 366 609 316 q 622 288 622 253 q 622 227 614 195 l 607 171 q 588 100 537 50 q 486 0 434 0 l 397 0 q 344 0 320 50 q 306 77 306 111 l 306 115 l 241 0 l 168 0 z"},"m":{"x_min":0,"x_max":720,"ha":720,"o":"m 416 342 q 419 355 419 366 q 419 381 413 394 q 403 415 380 415 l 289 415 q 266 415 244 394 q 222 372 214 342 l 122 0 l 49 0 l 141 342 q 159 413 210 463 q 261 513 314 513 l 406 513 q 459 513 483 463 q 483 462 484 461 q 484 462 485 463 q 536 513 589 513 l 681 513 q 733 513 758 463 q 771 435 771 399 q 771 373 763 342 l 671 0 l 598 0 l 690 342 q 693 355 693 366 q 693 381 688 394 q 677 415 655 415 l 563 415 q 541 415 519 394 q 497 372 489 342 l 397 0 l 324 0 z"},"#":{"x_min":0,"x_max":500,"ha":500,"o":"m 253 488 l 292 635 l 365 635 l 326 488 l 436 488 l 475 635 l 548 635 l 509 488 l 583 488 l 556 391 l 483 391 l 457 293 l 530 293 l 504 195 l 431 195 l 392 49 l 318 49 l 357 195 l 248 195 l 208 49 l 135 49 l 174 195 l 101 195 l 127 293 l 201 293 l 227 391 l 153 391 l 180 488 z m 300 391 l 274 293 l 384 293 l 410 391 z"},",":{"x_min":0,"x_max":171,"ha":171,"o":"m 85 0 l 49 0 l 75 98 l 148 98 l 116 -24 q 110 -44 96 -59 q 81 -73 66 -73 l 51 -73 l 42 -24 l 61 -24 q 79 -24 85 0 z"},"n":{"x_min":0,"x_max":500,"ha":500,"o":"m 122 0 l 49 0 l 141 342 q 159 413 210 463 q 261 513 314 513 l 461 513 q 514 513 538 463 q 552 435 552 399 q 552 373 543 342 l 452 0 l 378 0 l 470 342 q 474 355 474 366 q 474 381 468 394 q 458 415 435 415 l 289 415 q 266 415 244 394 q 222 372 214 342 z"},"h":{"x_min":0,"x_max":500,"ha":500,"o":"m 122 0 l 49 0 l 232 684 l 305 684 l 259 513 l 461 513 q 514 513 538 463 q 552 435 552 399 q 552 373 543 342 l 452 0 l 378 0 l 470 342 q 474 355 474 366 q 474 381 468 394 q 458 415 435 415 l 233 415 z"},"z":{"x_min":0,"x_max":500,"ha":500,"o":"m 226 98 l 478 98 l 452 0 l 49 0 l 412 415 l 160 415 l 186 513 l 589 513 z"},"B":{"x_min":0,"x_max":610,"ha":610,"o":"m 227 391 l 538 391 q 561 391 583 412 q 604 434 613 464 l 625 513 q 629 526 629 538 q 629 553 624 564 q 613 586 591 586 l 279 586 z m 232 684 l 617 684 q 669 684 694 634 q 707 605 707 571 q 707 544 699 513 l 686 464 q 667 393 616 343 q 615 342 615 342 q 615 341 616 341 q 629 313 629 278 q 629 251 621 220 l 607 171 q 588 100 537 50 q 486 0 434 0 l 49 0 z m 201 293 l 148 98 l 460 98 q 482 98 504 119 q 526 141 534 171 l 547 220 q 551 233 551 244 q 551 259 545 271 q 535 293 512 293 z"},"K":{"x_min":0,"x_max":586,"ha":586,"o":"m 232 684 l 305 684 l 188 249 l 653 684 l 745 684 l 417 376 l 562 0 l 479 0 l 356 320 l 158 134 l 122 0 l 49 0 z"},"R":{"x_min":0,"x_max":610,"ha":610,"o":"m 214 342 l 525 342 q 548 342 570 363 q 591 385 600 415 l 625 513 q 629 526 629 538 q 629 553 624 564 q 613 586 591 586 l 279 586 z m 122 0 l 49 0 l 232 684 l 617 684 q 669 684 694 634 q 707 605 707 571 q 707 544 699 513 l 673 415 q 654 344 604 294 q 602 293 602 293 q 602 292 603 292 q 616 264 616 229 q 616 202 607 171 l 562 0 l 488 0 l 534 171 q 538 184 538 195 q 538 210 532 223 q 521 244 499 244 l 188 244 z"},"T":{"x_min":0,"x_max":610,"ha":610,"o":"m 745 684 l 719 586 l 499 586 l 342 0 l 269 0 l 426 586 l 206 586 l 232 684 z"},"P":{"x_min":0,"x_max":610,"ha":610,"o":"m 214 342 l 525 342 q 548 342 570 363 q 591 385 600 415 l 625 513 q 629 526 629 538 q 629 553 624 564 q 613 586 591 586 l 279 586 z m 232 684 l 617 684 q 669 684 694 634 q 707 605 707 571 q 707 544 699 513 l 673 415 q 654 344 603 294 q 552 244 499 244 l 188 244 l 122 0 l 49 0 z"},"|":{"x_min":0,"x_max":171,"ha":171,"o":"m 245 732 l 318 732 l 109 -49 l 36 -49 z"},"t":{"x_min":0,"x_max":354,"ha":354,"o":"m 442 513 l 417 415 l 233 415 l 168 171 q 164 158 164 146 q 164 132 170 120 q 181 98 204 98 l 332 98 l 305 0 l 177 0 q 124 0 100 51 q 86 79 86 113 q 86 140 95 171 l 232 684 l 305 684 l 259 513 z"},"M":{"x_min":0,"x_max":647,"ha":647,"o":"m 269 0 l 255 497 l 122 0 l 49 0 l 232 684 l 324 684 l 339 98 l 360 98 l 690 684 l 781 684 l 598 0 l 525 0 l 658 497 l 378 0 z"},"g":{"x_min":0,"x_max":500,"ha":500,"o":"m 168 171 q 164 158 164 146 q 164 131 170 119 q 181 98 204 98 l 405 98 l 490 415 l 289 415 q 266 415 244 394 q 222 372 214 342 z m 378 0 l 177 0 q 124 0 100 50 q 86 78 86 113 q 86 140 95 171 l 141 342 q 159 413 210 463 q 261 513 314 513 l 589 513 l 445 -24 q 426 -95 375 -145 q 324 -195 271 -195 l 70 -195 l 96 -98 l 297 -98 q 320 -98 342 -76 q 364 -55 372 -24 z"},"j":{"x_min":0,"x_max":146,"ha":146,"o":"m 162 513 l 235 513 l 91 -24 q 72 -95 21 -145 q -30 -195 -83 -195 l -101 -195 l -75 -98 l -57 -98 q -34 -98 -12 -76 q 10 -55 18 -24 z m 208 684 l 281 684 l 255 586 l 182 586 z"},"i":{"x_min":0,"x_max":171,"ha":171,"o":"m 186 513 l 259 513 l 122 0 l 49 0 z m 305 684 l 279 586 l 206 586 l 232 684 z"},"y":{"x_min":0,"x_max":500,"ha":500,"o":"m 516 513 l 589 513 l 445 -24 q 426 -95 375 -145 q 324 -195 271 -195 l 70 -195 l 96 -98 l 297 -98 q 320 -98 342 -76 q 364 -55 372 -24 l 378 0 l 177 0 q 124 0 100 50 q 86 78 86 113 q 86 140 95 171 l 186 513 l 259 513 l 168 171 q 164 158 164 146 q 164 131 170 119 q 181 98 204 98 l 405 98 z"},"@":{"x_min":0,"x_max":537,"ha":537,"o":"m 317 317 q 313 304 313 293 q 313 278 319 266 q 330 244 353 244 l 480 244 l 533 439 l 405 439 q 382 439 360 418 q 338 396 330 366 z m 572 586 l 334 586 q 312 586 290 564 q 268 543 259 513 l 168 171 q 164 158 164 146 q 164 131 170 119 q 181 98 204 98 l 478 98 l 452 0 l 177 0 q 124 0 100 50 q 86 78 86 113 q 86 140 95 171 l 186 513 q 205 583 256 634 q 307 684 360 684 l 671 684 l 527 146 l 326 146 q 273 146 249 197 q 235 225 235 259 q 235 286 244 317 l 257 366 q 276 437 327 487 q 378 537 431 537 l 559 537 z"},".":{"x_min":0,"x_max":171,"ha":171,"o":"m 75 98 l 148 98 l 122 0 l 49 0 z"},"p":{"x_min":0,"x_max":500,"ha":500,"o":"m 470 342 q 474 355 474 366 q 474 381 468 394 q 458 415 435 415 l 233 415 l 148 98 l 350 98 q 373 98 394 119 q 416 141 424 171 z m 186 513 l 461 513 q 514 513 538 463 q 552 435 552 399 q 552 373 543 342 l 498 171 q 479 100 427 50 q 376 0 324 0 l 122 0 l 76 -171 l 3 -171 z"},"X":{"x_min":0,"x_max":562,"ha":562,"o":"m 332 342 l 208 684 l 290 684 l 390 407 l 638 684 l 720 684 l 414 342 l 537 0 l 455 0 l 355 276 l 106 0 l 24 0 z"},"*":{"x_min":0,"x_max":413,"ha":413,"o":"m 406 604 l 507 644 l 505 551 l 403 512 l 432 408 l 357 351 l 329 454 l 244 351 l 201 408 l 285 512 l 204 551 l 251 644 l 333 604 l 367 732 l 440 732 z"},"Y":{"x_min":0,"x_max":562,"ha":562,"o":"m 334 335 l 332 342 l 208 684 l 290 684 l 390 407 l 638 684 l 721 684 l 414 342 l 408 334 l 318 0 l 245 0 z"},"c":{"x_min":0,"x_max":500,"ha":500,"o":"m 478 98 l 452 0 l 177 0 q 124 0 100 50 q 86 78 86 113 q 86 140 95 171 l 141 342 q 159 413 210 463 q 261 513 314 513 l 589 513 l 563 415 l 289 415 q 266 415 244 394 q 222 372 214 342 l 168 171 q 164 158 164 146 q 164 131 170 119 q 181 98 204 98 z"},"!":{"x_min":0,"x_max":171,"ha":171,"o":"m 161 146 l 88 146 l 232 684 l 305 684 z m 49 0 l 75 98 l 148 98 l 122 0 z"},"/":{"x_min":0,"x_max":372,"ha":372,"o":"m 49 0 l 434 684 l 507 684 l 122 0 z"},"[":{"x_min":0,"x_max":391,"ha":391,"o":"m 355 49 l 329 -49 l 36 -49 l 245 732 l 538 732 l 512 635 l 292 635 l 135 49 z"},"6":{"x_min":0,"x_max":574,"ha":574,"o":"m 214 342 l 168 171 q 164 158 164 146 q 164 131 170 119 q 181 98 204 98 l 423 98 q 446 98 468 119 q 489 141 498 171 l 523 269 q 527 282 527 294 q 527 309 521 320 q 511 342 489 342 z m 240 439 l 515 439 q 567 439 592 390 q 605 361 605 327 q 605 300 597 269 l 571 171 q 552 100 501 50 q 450 0 397 0 l 177 0 q 124 0 100 50 q 86 78 86 113 q 86 140 95 171 l 186 513 q 205 583 256 634 q 307 684 360 684 l 671 684 l 646 586 l 334 586 q 312 586 290 564 q 268 543 259 513 z"},"r":{"x_min":0,"x_max":354,"ha":354,"o":"m 49 0 l 141 342 q 159 413 210 463 q 261 513 314 513 l 443 513 l 417 415 l 289 415 q 266 415 244 394 q 222 372 214 342 l 122 0 z"},"2":{"x_min":0,"x_max":574,"ha":574,"o":"m 256 293 q 233 293 211 271 q 189 250 181 220 l 148 98 l 551 98 l 525 0 l 49 0 l 108 220 q 126 291 177 341 q 229 391 282 391 l 501 391 q 524 391 546 412 q 568 434 576 464 l 589 513 q 593 526 593 538 q 593 553 587 564 q 577 586 554 586 l 206 586 l 232 684 l 580 684 q 633 684 657 634 q 670 605 670 571 q 670 544 662 513 l 649 464 q 630 393 579 343 q 528 293 476 293 z"},"{":{"x_min":0,"x_max":427,"ha":427,"o":"m 291 220 l 265 122 q 261 109 261 97 q 261 83 267 70 q 277 49 300 49 l 392 49 l 365 -49 l 274 -49 q 221 -49 197 1 q 183 29 183 64 q 183 91 191 122 l 218 220 q 221 233 221 244 q 221 259 215 271 q 205 293 183 293 l 127 293 l 153 391 l 208 391 q 231 391 253 412 q 275 434 283 464 l 309 562 q 328 632 379 682 q 430 732 483 732 l 575 732 l 548 635 l 457 635 q 434 635 412 613 q 391 592 382 562 l 356 464 q 337 393 286 341 q 299 313 299 278 q 299 251 291 220 z"},"9":{"x_min":0,"x_max":574,"ha":574,"o":"m 543 342 l 589 513 q 593 526 593 538 q 593 553 587 564 q 577 586 554 586 l 334 586 q 312 586 290 564 q 268 543 259 513 l 233 415 q 229 402 229 390 q 229 375 236 363 q 246 342 269 342 z m 517 244 l 243 244 q 189 244 166 294 q 152 322 152 357 q 152 384 160 415 l 186 513 q 205 583 256 634 q 307 684 360 684 l 580 684 q 633 684 657 634 q 670 605 670 571 q 670 544 662 513 l 571 171 q 552 100 501 50 q 450 0 397 0 l 85 0 l 112 98 l 423 98 q 446 98 468 119 q 489 141 498 171 z"}," ":{"x_min":0,"x_max":391,"ha":391,"o":""},"I":{"x_min":0,"x_max":171,"ha":171,"o":"m 232 684 l 305 684 l 122 0 l 49 0 z"},"H":{"x_min":0,"x_max":610,"ha":610,"o":"m 232 684 l 305 684 l 227 391 l 593 391 l 671 684 l 745 684 l 562 0 l 488 0 l 567 293 l 201 293 l 122 0 l 49 0 z"},"4":{"x_min":0,"x_max":574,"ha":574,"o":"m 504 195 l 577 195 l 551 98 l 478 98 l 452 0 l 378 0 l 405 98 l 75 98 l 452 684 l 543 684 l 229 195 l 431 195 l 470 342 l 543 342 z"},"~":{"x_min":0,"x_max":537,"ha":537,"o":"m 402 977 l 476 977 q 514 977 531 941 q 540 921 540 896 q 540 877 534 854 q 533 850 533 846 q 533 841 535 837 q 539 830 546 830 l 620 830 q 627 830 634 837 q 641 844 644 854 l 657 903 l 730 903 l 717 854 q 704 804 667 768 q 631 732 593 732 l 520 732 q 482 732 465 768 q 455 788 455 812 q 455 832 461 854 q 462 859 462 863 q 462 868 460 872 q 457 879 449 879 l 376 879 q 368 879 361 872 q 354 865 351 854 l 338 806 l 265 806 l 278 854 q 292 905 328 941 q 364 977 402 977 z"},"D":{"x_min":0,"x_max":610,"ha":610,"o":"m 148 98 l 460 98 q 482 98 504 119 q 526 141 534 171 l 625 513 q 629 526 629 538 q 629 553 624 564 q 613 586 591 586 l 279 586 z m 607 171 q 588 100 537 50 q 486 0 434 0 l 49 0 l 232 684 l 617 684 q 669 684 694 634 q 707 605 707 571 q 707 544 699 513 z"},"^":{"x_min":0,"x_max":537,"ha":537,"o":"m 245 732 l 271 830 l 530 977 l 711 830 l 685 732 l 504 879 z"},"0":{"x_min":0,"x_max":574,"ha":574,"o":"m 168 171 q 164 158 164 146 q 164 131 170 119 q 181 98 204 98 l 423 98 q 446 98 468 119 q 489 141 498 171 l 589 513 q 593 526 593 538 q 593 553 587 564 q 577 586 554 586 l 334 586 q 312 586 290 564 q 268 543 259 513 z m 571 171 q 552 100 501 50 q 450 0 397 0 l 177 0 q 124 0 100 50 q 86 78 86 113 q 86 140 95 171 l 186 513 q 205 583 256 634 q 307 684 360 684 l 580 684 q 633 684 657 634 q 670 605 670 571 q 670 544 662 513 z"},"F":{"x_min":0,"x_max":610,"ha":610,"o":"m 201 293 l 122 0 l 49 0 l 186 513 q 205 583 256 634 q 307 684 360 684 l 745 684 l 719 586 l 334 586 q 312 586 290 564 q 268 543 259 513 l 227 391 l 593 391 l 567 293 z"},"`":{"x_min":0,"x_max":354,"ha":354,"o":"m 311 977 l 476 977 l 501 732 l 410 732 z"},"k":{"x_min":0,"x_max":476,"ha":476,"o":"m 232 684 l 305 684 l 188 248 l 212 269 l 498 513 l 589 513 l 304 269 l 452 0 l 342 0 l 239 213 l 161 146 l 122 0 l 49 0 z"},"u":{"x_min":0,"x_max":500,"ha":500,"o":"m 516 513 l 589 513 l 498 171 q 479 100 427 50 q 376 0 324 0 l 177 0 q 124 0 100 50 q 86 78 86 113 q 86 140 95 171 l 186 513 l 259 513 l 168 171 q 164 158 164 146 q 164 131 170 119 q 181 98 204 98 l 350 98 q 373 98 394 119 q 416 141 424 171 z"},"]":{"x_min":0,"x_max":391,"ha":391,"o":"m 282 49 l 438 635 l 219 635 l 245 732 l 538 732 l 329 -49 l 36 -49 l 62 49 z"},"U":{"x_min":0,"x_max":610,"ha":610,"o":"m 168 171 q 164 158 164 146 q 164 131 170 119 q 181 98 204 98 l 460 98 q 482 98 504 119 q 526 141 534 171 l 671 684 l 745 684 l 607 171 q 588 100 537 50 q 486 0 434 0 l 177 0 q 124 0 100 50 q 86 78 86 113 q 86 140 95 171 l 232 684 l 305 684 z"},"o":{"x_min":0,"x_max":500,"ha":500,"o":"m 168 171 q 164 158 164 146 q 164 131 170 119 q 181 98 204 98 l 350 98 q 373 98 394 119 q 416 141 424 171 l 470 342 q 474 355 474 366 q 474 381 468 394 q 458 415 435 415 l 289 415 q 266 415 244 394 q 222 372 214 342 z m 498 171 q 479 100 427 50 q 376 0 324 0 l 177 0 q 124 0 100 50 q 86 78 86 113 q 86 140 95 171 l 141 342 q 159 413 210 463 q 261 513 314 513 l 461 513 q 514 513 538 463 q 552 435 552 399 q 552 373 543 342 z"},"N":{"x_min":0,"x_max":610,"ha":610,"o":"m 274 567 l 122 0 l 49 0 l 232 684 l 314 684 l 520 116 l 671 684 l 745 684 l 562 0 l 479 0 z"},"+":{"x_min":0,"x_max":500,"ha":500,"o":"m 292 293 l 127 293 l 153 391 l 318 391 l 371 586 l 444 586 l 392 391 l 556 391 l 530 293 l 366 293 l 313 98 l 240 98 z"},"G":{"x_min":0,"x_max":610,"ha":610,"o":"m 666 391 l 607 171 q 588 100 537 50 q 486 0 434 0 l 177 0 q 124 0 100 50 q 86 78 86 113 q 86 140 95 171 l 186 513 q 205 583 256 634 q 307 684 360 684 l 745 684 l 719 586 l 334 586 q 312 586 290 564 q 268 543 259 513 l 168 171 q 164 158 164 146 q 164 131 170 119 q 181 98 204 98 l 460 98 q 482 98 504 119 q 526 141 534 171 l 567 293 l 384 293 l 410 391 z"},"q":{"x_min":0,"x_max":500,"ha":500,"o":"m 168 171 q 164 158 164 146 q 164 131 170 119 q 181 98 204 98 l 405 98 l 490 415 l 289 415 q 266 415 244 394 q 222 372 214 342 z m 406 -171 l 333 -171 l 378 0 l 177 0 q 124 0 100 50 q 86 78 86 113 q 86 140 95 171 l 141 342 q 159 413 210 463 q 261 513 314 513 l 589 513 z"},"d":{"x_min":0,"x_max":500,"ha":500,"o":"m 168 171 q 164 158 164 146 q 164 131 170 119 q 181 98 204 98 l 405 98 l 490 415 l 289 415 q 266 415 244 394 q 222 372 214 342 z m 452 0 l 177 0 q 124 0 100 50 q 86 78 86 113 q 86 140 95 171 l 141 342 q 159 413 210 463 q 261 513 314 513 l 516 513 l 562 684 l 635 684 z"},"1":{"x_min":0,"x_max":171,"ha":171,"o":"m 232 684 l 305 684 l 122 0 l 49 0 z"},"5":{"x_min":0,"x_max":574,"ha":574,"o":"m 141 342 l 232 684 l 671 684 l 646 586 l 279 586 l 240 439 l 515 439 q 567 439 592 390 q 605 361 605 327 q 605 300 597 269 l 571 171 q 552 100 501 50 q 450 0 397 0 l 49 0 l 75 98 l 423 98 q 446 98 468 119 q 489 141 498 171 l 523 269 q 527 282 527 294 q 527 309 521 320 q 511 342 489 342 z"}}}
